<?xml version="1.0" encoding="UTF-8"?>
<svg id="Camada_2" data-name="Camada 2" xmlns="http://www.w3.org/2000/svg" viewBox="0 0 408.68 146.33">
  <defs>
    <style>
      .cls-1 {
        fill: #e5c400;
      }

      .cls-1, .cls-2, .cls-3, .cls-4, .cls-5 {
        stroke-width: 0px;
      }

      .cls-2 {
        fill: #3a2c60;
      }

      .cls-3 {
        fill: #3d2f62;
      }

      .cls-4 {
        fill: #fff;
      }

      .cls-5 {
        fill: #fed6e4;
      }
    </style>
  </defs>
  <g id="Camada_1-2" data-name="Camada 1">
    <g>
      <g>
        <path class="cls-4" d="m191.75,111.67c-7.91,0-14.96-3.16-19.71-8.49l10.07-9.93c2.01,3.02,5.61,5.03,9.64,5.03,6.47,0,12.37-5.32,12.37-11.8,0-23.02-32.08-16.54-32.08-44.88,0-12.37,10.07-21.58,22.44-21.58,7.34,0,14.1,3.16,18.27,8.34l-10.36,10.36c-1.15-3.02-4.46-5.18-7.91-5.18-4.17,0-8.34,3.45-8.34,7.77,0,16.54,32.36,14.53,32.36,45.17,0,14.38-12.37,25.17-26.75,25.17Z"/>
        <path class="cls-4" d="m240.52,111.38h-14.38V20.33h14.38v91.05Z"/>
        <path class="cls-4" d="m247.71,65.93c0-25.17,20.86-45.89,46.61-45.89,9.06,0,17.55,2.59,24.6,6.9l-9.06,10.5c-4.6-2.45-9.92-3.88-15.54-3.88-17.84,0-32.22,14.38-32.22,32.36s14.38,32.37,32.22,32.37c4.89,0,9.49-1.15,13.67-3.02v-22.58h-13.67v-13.52h28.05v43.3c-7.91,6.04-18.12,9.21-28.05,9.21-25.75,0-46.61-20.71-46.61-45.74Z"/>
        <path class="cls-4" d="m345.38,111.38h-14.38V20.33h14.38v91.05Z"/>
        <path class="cls-4" d="m408.67,111.38h-14.38l-25.89-58.69v58.69h-14.38V20.33h14.38l25.89,58.69V20.33h14.38v91.05Z"/>
      </g>
      <g>
        <path class="cls-4" d="m177.64,133.05c0,.7-.25,1.25-.76,1.64-.51.39-1.2.59-2.07.59-.94,0-1.67-.12-2.18-.36v-.89c.33.14.68.25,1.07.33s.77.12,1.14.12c.62,0,1.08-.12,1.39-.35.31-.23.47-.56.47-.98,0-.28-.06-.5-.17-.68-.11-.18-.3-.34-.56-.49-.26-.15-.66-.32-1.19-.51-.74-.27-1.27-.58-1.59-.94-.32-.36-.48-.84-.48-1.42,0-.61.23-1.1.69-1.47.46-.36,1.07-.54,1.83-.54s1.52.15,2.18.44l-.29.81c-.66-.28-1.3-.41-1.92-.41-.49,0-.87.11-1.15.32-.28.21-.41.5-.41.88,0,.28.05.5.15.68.1.18.27.34.52.48.24.15.61.31,1.11.49.84.3,1.41.62,1.72.96s.47.78.47,1.33Z"/>
        <path class="cls-4" d="m179.21,135.17v-7.97h.93v7.97h-.93Z"/>
        <path class="cls-4" d="m186.76,133.05c0,.7-.25,1.25-.76,1.64-.51.39-1.2.59-2.07.59-.94,0-1.67-.12-2.18-.36v-.89c.33.14.68.25,1.07.33s.77.12,1.14.12c.62,0,1.08-.12,1.39-.35.31-.23.47-.56.47-.98,0-.28-.06-.5-.17-.68-.11-.18-.3-.34-.56-.49-.26-.15-.66-.32-1.19-.51-.74-.27-1.27-.58-1.59-.94-.32-.36-.48-.84-.48-1.42,0-.61.23-1.1.69-1.47.46-.36,1.07-.54,1.83-.54s1.52.15,2.18.44l-.29.81c-.66-.28-1.3-.41-1.92-.41-.49,0-.87.11-1.15.32-.28.21-.41.5-.41.88,0,.28.05.5.15.68.1.18.27.34.52.48.24.15.61.31,1.11.49.84.3,1.41.62,1.72.96s.47.78.47,1.33Z"/>
        <path class="cls-4" d="m190.79,135.17h-.93v-7.14h-2.52v-.82h5.97v.82h-2.52v7.14Z"/>
        <path class="cls-4" d="m198.89,135.17h-4.44v-7.97h4.44v.82h-3.51v2.57h3.3v.82h-3.3v2.93h3.51v.83Z"/>
        <path class="cls-4" d="m204.13,135.17l-2.7-7.06h-.04c.05.56.08,1.22.08,1.99v5.07h-.86v-7.97h1.39l2.52,6.57h.04l2.54-6.57h1.38v7.97h-.93v-5.13c0-.59.03-1.23.08-1.92h-.04l-2.72,7.05h-.75Z"/>
        <path class="cls-4" d="m215.63,135.17l-.99-2.53h-3.19l-.98,2.53h-.94l3.15-8h.78l3.13,8h-.96Zm-1.28-3.37l-.93-2.47c-.12-.31-.24-.7-.37-1.15-.08.35-.19.73-.34,1.15l-.94,2.47h2.58Z"/>
        <path class="cls-4" d="m220.47,135.17v-7.97h.93v7.97h-.93Z"/>
        <path class="cls-4" d="m229.75,135.17h-1.06l-4.35-6.69h-.04c.06.78.09,1.5.09,2.16v4.53h-.86v-7.97h1.05l4.34,6.66h.04c0-.1-.02-.41-.05-.95s-.03-.91-.03-1.14v-4.57h.87v7.97Z"/>
        <path class="cls-4" d="m234.34,135.17h-.93v-7.14h-2.52v-.82h5.97v.82h-2.52v7.14Z"/>
        <path class="cls-4" d="m242.44,135.17h-4.44v-7.97h4.44v.82h-3.51v2.57h3.3v.82h-3.3v2.93h3.51v.83Z"/>
        <path class="cls-4" d="m247.66,131h2.71v3.87c-.42.13-.85.24-1.29.31-.44.07-.94.1-1.52.1-1.21,0-2.14-.36-2.82-1.08-.67-.72-1.01-1.72-1.01-3.02,0-.83.17-1.55.5-2.18s.81-1.1,1.44-1.43c.62-.33,1.36-.49,2.2-.49s1.64.16,2.38.47l-.36.82c-.72-.31-1.41-.46-2.08-.46-.97,0-1.73.29-2.27.87s-.82,1.38-.82,2.4c0,1.08.26,1.89.79,2.45.53.56,1.3.83,2.31.83.55,0,1.09-.06,1.62-.19v-2.45h-1.78v-.83Z"/>
        <path class="cls-4" d="m253.15,131.86v3.31h-.93v-7.97h2.18c.98,0,1.7.19,2.17.56.47.37.7.94.7,1.69,0,1.05-.53,1.77-1.6,2.14l2.16,3.58h-1.1l-1.93-3.31h-1.66Zm0-.8h1.27c.65,0,1.13-.13,1.44-.39.31-.26.46-.65.46-1.17s-.16-.91-.47-1.14-.81-.35-1.5-.35h-1.2v3.05Z"/>
        <path class="cls-4" d="m264.07,135.17l-.99-2.53h-3.19l-.98,2.53h-.94l3.15-8h.78l3.13,8h-.96Zm-1.28-3.37l-.93-2.47c-.12-.31-.24-.7-.37-1.15-.08.35-.19.73-.34,1.15l-.94,2.47h2.58Z"/>
        <path class="cls-4" d="m272.43,131.11c0,1.31-.36,2.32-1.07,3.02s-1.74,1.04-3.08,1.04h-2.21v-7.97h2.44c1.24,0,2.2.34,2.89,1.03.69.69,1.03,1.65,1.03,2.88Zm-.98.03c0-1.04-.26-1.82-.78-2.35-.52-.53-1.3-.79-2.32-.79h-1.35v6.36h1.13c1.1,0,1.93-.27,2.49-.81.56-.54.83-1.35.83-2.41Z"/>
        <path class="cls-4" d="m281.06,131.18c0,1.27-.32,2.28-.97,3.01-.65.73-1.54,1.1-2.69,1.1s-2.08-.36-2.72-1.08c-.64-.72-.96-1.73-.96-3.04s.32-2.3.96-3.02c.64-.71,1.55-1.07,2.72-1.07s2.04.36,2.68,1.09c.64.73.96,1.73.96,3.01Zm-6.35,0c0,1.08.23,1.9.69,2.45.46.56,1.13.84,2,.84s1.55-.28,2-.83.68-1.38.68-2.46-.22-1.88-.67-2.44c-.45-.55-1.11-.83-1.99-.83s-1.55.28-2.01.84c-.46.56-.69,1.37-.69,2.43Z"/>
        <path class="cls-4" d="m291.99,131.11c0,1.31-.36,2.32-1.07,3.02s-1.74,1.04-3.08,1.04h-2.21v-7.97h2.44c1.24,0,2.2.34,2.89,1.03.69.69,1.03,1.65,1.03,2.88Zm-.98.03c0-1.04-.26-1.82-.78-2.35-.52-.53-1.3-.79-2.32-.79h-1.35v6.36h1.13c1.1,0,1.93-.27,2.49-.81.56-.54.83-1.35.83-2.41Z"/>
        <path class="cls-4" d="m298.15,135.17h-4.44v-7.97h4.44v.82h-3.51v2.57h3.3v.82h-3.3v2.93h3.51v.83Z"/>
        <path class="cls-4" d="m306.2,131h2.71v3.87c-.42.13-.85.24-1.29.31-.44.07-.94.1-1.52.1-1.21,0-2.14-.36-2.82-1.08-.67-.72-1.01-1.72-1.01-3.02,0-.83.17-1.55.5-2.18s.81-1.1,1.44-1.43c.62-.33,1.36-.49,2.2-.49s1.64.16,2.38.47l-.36.82c-.72-.31-1.41-.46-2.08-.46-.97,0-1.73.29-2.27.87s-.82,1.38-.82,2.4c0,1.08.26,1.89.79,2.45.53.56,1.3.83,2.31.83.55,0,1.09-.06,1.62-.19v-2.45h-1.78v-.83Z"/>
        <path class="cls-4" d="m315.21,135.17h-4.44v-7.97h4.44v.82h-3.51v2.57h3.3v.82h-3.3v2.93h3.51v.83Z"/>
        <path class="cls-4" d="m321.41,133.05c0,.7-.25,1.25-.76,1.64-.51.39-1.2.59-2.07.59-.94,0-1.67-.12-2.18-.36v-.89c.33.14.68.25,1.07.33s.77.12,1.14.12c.62,0,1.08-.12,1.39-.35.31-.23.47-.56.47-.98,0-.28-.06-.5-.17-.68-.11-.18-.3-.34-.56-.49-.26-.15-.66-.32-1.19-.51-.74-.27-1.27-.58-1.59-.94-.32-.36-.48-.84-.48-1.42,0-.61.23-1.1.69-1.47.46-.36,1.07-.54,1.83-.54s1.52.15,2.18.44l-.29.81c-.66-.28-1.3-.41-1.92-.41-.49,0-.87.11-1.15.32-.28.21-.41.5-.41.88,0,.28.05.5.15.68.1.18.27.34.52.48.24.15.61.31,1.11.49.84.3,1.41.62,1.72.96s.47.78.47,1.33Z"/>
        <path class="cls-4" d="m325.44,135.17h-.93v-7.14h-2.52v-.82h5.97v.82h-2.52v7.14Z"/>
        <path class="cls-4" d="m334.11,135.17l-.99-2.53h-3.19l-.98,2.53h-.94l3.15-8h.78l3.13,8h-.96Zm-1.79-8.61c-.16,0-.31-.03-.46-.1-.15-.07-.29-.14-.44-.22-.14-.08-.28-.16-.41-.22-.13-.07-.26-.1-.38-.1-.18,0-.32.05-.41.16-.09.11-.17.27-.22.5h-.53c.05-.44.18-.78.38-1.03.21-.25.48-.37.81-.37.17,0,.33.03.49.1.16.07.3.14.45.22.14.08.28.16.41.22.13.07.25.1.37.1.18,0,.31-.05.4-.16.09-.11.16-.27.21-.5h.54c-.05.44-.17.78-.38,1.03-.21.25-.48.37-.82.37Zm.51,5.25l-.93-2.47c-.12-.31-.24-.7-.37-1.15-.08.35-.19.73-.34,1.15l-.94,2.47h2.58Z"/>
        <path class="cls-4" d="m343.03,131.18c0,1.27-.32,2.28-.97,3.01-.65.73-1.54,1.1-2.69,1.1s-2.08-.36-2.72-1.08c-.64-.72-.96-1.73-.96-3.04s.32-2.3.96-3.02c.64-.71,1.55-1.07,2.72-1.07s2.04.36,2.68,1.09c.64.73.96,1.73.96,3.01Zm-6.35,0c0,1.08.23,1.9.69,2.45.46.56,1.13.84,2,.84s1.55-.28,2-.83.68-1.38.68-2.46-.22-1.88-.67-2.44c-.45-.55-1.11-.83-1.99-.83s-1.55.28-2.01.84c-.46.56-.69,1.37-.69,2.43Z"/>
        <path class="cls-4" d="m347.59,135.17v-7.97h.93v7.97h-.93Z"/>
        <path class="cls-4" d="m356.87,135.17h-1.06l-4.35-6.69h-.04c.06.78.09,1.5.09,2.16v4.53h-.86v-7.97h1.05l4.34,6.66h.04c0-.1-.02-.41-.05-.95s-.03-.91-.03-1.14v-4.57h.87v7.97Z"/>
        <path class="cls-4" d="m365.36,131.11c0,1.31-.36,2.32-1.07,3.02s-1.74,1.04-3.08,1.04h-2.21v-7.97h2.44c1.24,0,2.2.34,2.89,1.03.69.69,1.03,1.65,1.03,2.88Zm-.98.03c0-1.04-.26-1.82-.78-2.35-.52-.53-1.3-.79-2.32-.79h-1.35v6.36h1.13c1.1,0,1.93-.27,2.49-.81.56-.54.83-1.35.83-2.41Z"/>
        <path class="cls-4" d="m373.1,127.21v5.15c0,.91-.27,1.62-.82,2.14-.55.52-1.3.78-2.26.78s-1.7-.26-2.23-.78c-.52-.52-.79-1.24-.79-2.16v-5.13h.93v5.2c0,.66.18,1.18.54,1.53s.9.53,1.6.53,1.19-.18,1.55-.54c.36-.36.54-.87.54-1.54v-5.19h.93Z"/>
        <path class="cls-4" d="m379.65,133.05c0,.7-.25,1.25-.76,1.64-.51.39-1.2.59-2.07.59-.94,0-1.67-.12-2.18-.36v-.89c.33.14.68.25,1.07.33s.77.12,1.14.12c.62,0,1.08-.12,1.39-.35.31-.23.47-.56.47-.98,0-.28-.06-.5-.17-.68-.11-.18-.3-.34-.56-.49-.26-.15-.66-.32-1.19-.51-.74-.27-1.27-.58-1.59-.94-.32-.36-.48-.84-.48-1.42,0-.61.23-1.1.69-1.47.46-.36,1.07-.54,1.83-.54s1.52.15,2.18.44l-.29.81c-.66-.28-1.3-.41-1.92-.41-.49,0-.87.11-1.15.32-.28.21-.41.5-.41.88,0,.28.05.5.15.68.1.18.27.34.52.48.24.15.61.31,1.11.49.84.3,1.41.62,1.72.96s.47.78.47,1.33Z"/>
        <path class="cls-4" d="m383.67,135.17h-.93v-7.14h-2.52v-.82h5.97v.82h-2.52v7.14Z"/>
        <path class="cls-4" d="m388.26,131.86v3.31h-.93v-7.97h2.18c.98,0,1.7.19,2.17.56.47.37.7.94.7,1.69,0,1.05-.53,1.77-1.6,2.14l2.16,3.58h-1.1l-1.93-3.31h-1.66Zm0-.8h1.27c.65,0,1.13-.13,1.44-.39.31-.26.46-.65.46-1.17s-.16-.91-.47-1.14-.81-.35-1.5-.35h-1.2v3.05Z"/>
        <path class="cls-4" d="m394.18,135.17v-7.97h.93v7.97h-.93Z"/>
        <path class="cls-4" d="m402.24,135.17l-.99-2.53h-3.19l-.98,2.53h-.94l3.15-8h.78l3.13,8h-.96Zm-1.28-3.37l-.93-2.47c-.12-.31-.24-.7-.37-1.15-.08.35-.19.73-.34,1.15l-.94,2.47h2.58Z"/>
        <path class="cls-4" d="m404.24,135.17v-7.97h.93v7.13h3.51v.84h-4.44Z"/>
      </g>
      <g>
        <path class="cls-5" d="m89.54,123.32c.57-.97.2-2.03.31-3.04.67-.96.82-2.03.83-3.19.02-2.77-.18-5.53.18-8.3.55-4.19,2.42-7.7,5.34-10.67,4.35-4.43,9-8.55,13.33-12.99,1.67-1.72,3.45-1.86,5.12-.67,1.94,1.39,2.18,3.89.39,5.78-1.76,1.86-3.35,3.88-5.25,5.62-.8.73-1.5,1.56-2.09,2.45-.75,1.13-.61,2.56.27,3.38.88.82,2.3.83,3.39-.03.77-.6,1.43-1.33,2.08-2.06,3.48-3.9,7.09-7.69,10.67-11.5,1.48-1.57,2.89-3.19,4.35-4.77,1.21-1.3,1.92-2.89,2.19-4.67.8-5.32,1.48-10.67,2.2-16,.08-.61.14-1.22.31-1.82.74-2.62,2.9-3.94,5.55-3.38,2.05.43,3.51,2.73,3.21,5.12-.4,3.2-.83,6.41-1.24,9.61-.69,5.34-1.4,10.67-2.07,16.01-.39,3.13-1.49,5.96-3.42,8.45-6.28,8.11-12.62,16.18-19.03,24.18-2.12,2.64-3.21,5.52-3.13,8.92.09,3.54.03,7.08.02,10.62,0,2.61-.73,3.37-3.39,3.41-3.28.05-6.57.01-9.85.01-2,0-4,.05-6-.02-2.15-.07-2.64-.58-2.86-2.74-.09-.92-.34-1.82-.29-2.75.05-.88-.66-1.21-1.12-1.73.56-.94.22-1.97.3-2.96.62-.8.83-1.7.8-2.71-.05-1.63-.06-3.27,0-4.9.04-1.09-.2-2-1.1-2.68Z"/>
        <path class="cls-2" d="m42.74,85.16c-2.58-2.55-5.22-5.05-7.74-7.66-1.62-1.68-1.53-3.79.06-5.5,1.05-1.12,2.15-2.19,3.25-3.26.41-.4.6-.74.23-1.31-1.28-1.97-2.12-4.17-3.14-6.28-.91-.8-1.04-1.96-1.31-3.02-.28-1.08-.85-1.5-1.95-1.47-.89.02-1.84.21-2.66-.36-3.78-.23-4.92-1.45-4.92-5.29,0-2.67-.02-5.33,0-8,.02-2.72,1.57-4.28,4.29-4.32,1.38-.02,2.77-.03,4.15,0,.71.02,1.07-.14,1.26-.92.88-3.6,2.3-6.99,4.22-10.16.36-.59.33-.97-.17-1.45-1.08-1.02-2.13-2.07-3.16-3.15-1.72-1.81-1.76-3.95-.03-5.74,2.17-2.25,4.38-4.46,6.63-6.63,1.85-1.78,3.98-1.73,5.87.07,1.04.99,2.07,1.99,3.04,3.05.52.57.92.56,1.55.17,3.12-1.91,6.47-3.3,10.02-4.17.75-.18,1-.53.98-1.27-.04-1.38-.05-2.77,0-4.15.09-2.73,1.48-4.22,4.17-4.29,3.07-.08,6.15-.04,9.23,0,2.02.02,3.38,1.02,4.05,2.94.13,1.57.5,3.11.4,4.7-.06.96.43,1.37,1.32,1.77,1.28.59,1.99.91,3.47,1.52,2.08.98,4.22,1.82,6.15,3.09.6.4.9.11,1.28-.28,1.11-1.13,2.21-2.29,3.38-3.35,1.55-1.4,3.66-1.52,5.16-.1,2.75,2.6,5.52,5.18,7.96,8.08,1.02,1.56.9,2.99-.46,4.57-.87,1.01-1.84,1.93-2.81,2.85-.71.67-.8,1.32-.34,2.18,1.58,2.94,2.98,5.97,3.82,9.22.2.77.69,1,1.46,1.08,1.58.16,2.72.17,4.17.28,2.89.43,3.7.99,4.14,3.78.09.54.05,2.21.05,2.72,0,2.25.05,4.51-.01,6.76-.08,3.06-1.74,4.7-4.81,4.82-1.13.04-2.25.02-3.38.01-.89-.01-1.43.33-1.66,1.23-.83,3.14-2.15,6.08-3.71,8.91-.5.91-.42,1.62.31,2.33.81.78,1.67,1.53,2.37,2.4,2.06,2.56,2.08,4.32.19,6.42-2.12,2.36-4.39,4.59-6.73,6.74-1.19,1.09-2.62,1.59-4.24.92-1.81-.43-2.81-1.92-4.04-3.11q-1.5-1.45-3.27-.48c-2.61,1.44-5.33,2.6-8.23,3.31-1.14.28-1.64.85-1.59,2.03.05,1.22.04,2.45,0,3.68-.07,2.43-1.64,4.07-4.04,4.08-3.62.02-7.24.24-10.84-.36-2.08-.74-2.98-2.26-2.95-4.41,0-.6-.07-1.2-.11-1.8-.45-.38-.45-.92-.41-1.42.07-1.15-.54-1.61-1.56-1.9-2.96-.85-5.83-1.94-8.47-3.55-.9-.55-1.59-.45-2.31.3-.92.96-1.84,1.93-2.84,2.81-1.47,1.3-3.17,1.41-4.75.36Z"/>
        <path class="cls-2" d="m33.81,145.81c-1.42-.18-2.88-.22-3.91-1.45-.77-.91-1.03-1.95-1.03-3.13,0-4.1-.04-8.2-.02-12.3.01-2.3-.67-4.29-2.1-6.1-6.27-7.91-12.42-15.92-18.76-23.77-3.1-3.84-4.45-8.17-4.99-12.96-.85-7.58-1.87-15.15-2.89-22.71-.53-3.89,1.21-7.05,4.57-7.98,3.46-.96,6.64.83,8.09,4.56.04.1.09.19.13.28,1.08,2.11.92,4.47,1.27,6.72.52,3.33.99,6.66,1.36,10.01.26,2.38,1.2,4.44,3.01,6.02,1.33,1.16,2.16,2.7,3.27,4.02,3.92,4.25,7.85,8.5,11.77,12.74.3.32.65.84,1.11.35.36-.38-.08-.74-.35-1.03-2.27-2.44-4.55-4.86-6.81-7.3-2.52-2.73-2.57-6.14-.16-8.5,2.4-2.35,5.91-2.29,8.5.3,5.35,5.36,10.96,10.46,16.01,16.12,3.02,3.13,3.83,7.11,3.91,11.2.16,8.1.1,16.2.01,24.3-.02,2.25-.26,4.5-.32,6.75-.06,2.05-1.11,3.29-3.08,3.95-.98.33-2,.43-3.03.43-4.46,0-8.92,0-13.38,0-.76,0-1.56.1-2.18-.51Z"/>
        <path class="cls-2" d="m143.96,60.28c.2,3-.51,5.91-.87,8.85-.8,6.66-1.65,13.32-2.55,19.97-.47,3.48-1.91,6.55-4.09,9.31-6.2,7.84-12.32,15.75-18.58,23.53-1.94,2.41-2.9,4.95-2.79,8.04.13,3.64.02,7.28,0,10.92-.01,3.29-1.48,4.79-4.79,4.81-4.92.03-9.85,0-14.77.01-.56,0-1.12.06-1.68.09-.6-.08-1.2-.14-1.8-.23-1.24-.18-2.24-.84-2.74-1.95-.91-2.07-.62-4.26-.36-6.42.03-.24.39-.44.59-.65,1.19-.11,1.69.47,1.67,1.63-.02.92.02,1.85.04,2.77.04,1.92.41,2.29,2.41,2.29,4,.01,8,0,12.01,0,1.59,0,3.18.02,4.77,0,1.75-.03,2.18-.47,2.19-2.21.02-3.95.07-7.9.02-11.85-.04-3.12.94-5.78,2.88-8.22,6.07-7.62,11.99-15.37,18.13-22.93,2.87-3.53,4.34-7.43,4.84-11.89.89-7.84,1.98-15.66,3-23.49.33-2.51-1.04-4.59-3.28-4.92-2.4-.36-4.32.98-4.7,3.52-.85,5.68-1.6,11.37-2.37,17.06-.27,1.99-.98,3.8-2.33,5.26-5.6,6.07-11.23,12.12-16.88,18.15-1.11,1.19-2.53,1.4-3.76.72-1.22-.67-1.77-2.03-1.41-3.42.16-.63.57-1.08.99-1.53,2.27-2.44,4.55-4.87,6.82-7.32,1.65-1.78,1.73-3.76.24-5.17-1.47-1.39-3.37-1.27-5.05.38-4.5,4.43-8.99,8.86-13.47,13.3-3.5,3.46-5.18,7.68-5.18,12.58,0,2.36-.02,4.72.04,7.08.02,1.01-.26,1.7-1.31,1.92-.64-.29-1.17-.69-1.15-1.47.1-4.04-.43-8.1.44-12.1.8-3.7,2.56-6.88,5.23-9.56,2.53-2.54,5.04-5.08,7.57-7.63,2.4-3.17,4.99-6.16,8.64-7.93,1.23-.6,2.65-.79,3.89.24,1.85.9,3.23,2.22,3.77,4.28.92,2.09.21,3.8-1.13,5.46-2.22,2.75-5.02,4.96-7.02,7.9,1.57-1.88,3.49-3.41,5.05-5.3,1.6-1.93,3.53-3.56,5.08-5.53.26-.32.61-.55.99-.7,2.36-2.12,4.52-4.43,6.44-6.95.62-.81.89-1.83,1.03-2.86.77-5.69,1.53-11.38,2.36-17.06.49-3.36,2.72-5.54,5.78-5.82,3.24-.3,5.78,1.4,6.93,4.63.05.14.14.27.21.4Z"/>
        <path class="cls-3" d="m89.54,123.32c1.18-.09,1.64.49,1.63,1.64-.02,2.34,0,4.67.02,7.01,0,.95-.32,1.58-1.35,1.64-.82-.23-1.11-.82-1.11-1.61,0-2.39-.02-4.78-.03-7.17,0-.66.25-1.18.84-1.51Z"/>
        <path class="cls-1" d="m71.86,92.35c-1.33,0-2.67,0-4,0-1.85-.01-2.22-.38-2.25-2.27-.03-1.69-.06-3.39.01-5.08.05-1.22-.52-1.73-1.65-1.97-4.05-.85-7.83-2.41-11.3-4.67-1.21-.79-2.1-.73-3.07.37-1.08,1.23-2.33,2.31-3.46,3.51-.97,1.02-1.85,1.1-2.87.06-2.04-2.09-4.11-4.17-6.2-6.2-.94-.92-.93-1.73-.02-2.63,1.31-1.3,2.59-2.63,3.93-3.91.8-.76.9-1.48.29-2.43-2.34-3.66-4.03-7.61-4.93-11.86-.24-1.13-.82-1.53-1.92-1.5-1.74.05-3.49.02-5.23,0-1.67-.02-2.14-.45-2.15-2.07-.02-2.87.01-5.75-.01-8.62-.01-1.36.63-1.96,1.97-1.95,1.8.02,3.59-.03,5.39.02,1.08.03,1.7-.33,1.95-1.47.91-4.25,2.54-8.22,4.92-11.86.67-1.03.48-1.76-.36-2.55-1.3-1.23-2.54-2.54-3.83-3.79-.91-.89-.96-1.75-.05-2.65,2.1-2.11,4.19-4.22,6.31-6.32.88-.87,1.77-.9,2.68.03,1.25,1.29,2.56,2.52,3.8,3.82.79.84,1.53,1.01,2.56.35,3.66-2.33,7.59-4.05,11.87-4.89,1.03-.2,1.42-.82,1.39-1.86-.05-1.74-.04-3.49,0-5.23.04-1.79.51-2.27,2.33-2.29,2.67-.03,5.34-.03,8.01,0,1.94.02,2.27.4,2.28,2.4,0,1.64,0,3.28,0,4.93,0,1.18.5,1.88,1.74,2.13,4.01.8,7.76,2.32,11.18,4.56,1.42.93,2.36.77,3.42-.47,1-1.17,2.18-2.17,3.24-3.29.96-1.02,1.84-1.14,2.87-.09,2.05,2.08,4.14,4.13,6.22,6.18.98.96.9,1.84-.06,2.76-1.29,1.24-2.51,2.57-3.83,3.79-.81.76-.96,1.45-.34,2.41,2.38,3.7,4.07,7.7,4.98,12,.23,1.07.82,1.42,1.84,1.4,1.85-.03,3.69,0,5.54-.01,1.27,0,1.91.58,1.9,1.86,0,2.98,0,5.95,0,8.93,0,1.29-.66,1.86-1.92,1.85-1.85-.01-3.7.02-5.54-.01-1.03-.02-1.6.35-1.83,1.42-.92,4.31-2.62,8.3-4.99,12-.57.89-.47,1.59.27,2.31,1.33,1.28,2.6,2.62,3.93,3.91.97.94.98,1.78-.02,2.74-2.07,2-4.06,4.06-6.11,6.08-1.19,1.17-1.74,1.15-2.96-.05-1.24-1.22-2.5-2.44-3.69-3.71-.77-.82-1.54-.9-2.45-.3-3.64,2.38-7.59,4.03-11.86,4.9-1.22.25-1.53,1.07-1.54,2.13-.01,1.8-.03,3.59,0,5.39.02,1.23-.51,1.79-1.75,1.76-1.54-.04-3.08,0-4.62,0Z"/>
        <path class="cls-5" d="m52.71,125.68c0,5.08,0,10.16,0,15.24,0,1.94-.4,2.34-2.36,2.35-5.54.01-11.08.01-16.62,0-2.01,0-2.38-.41-2.39-2.47-.01-3.75-.1-7.49-.01-11.24.08-3.4-1.02-6.26-3.14-8.91-6.03-7.52-11.86-15.2-17.95-22.68-2.87-3.53-4.28-7.45-4.79-11.91-.87-7.74-1.95-15.46-2.96-23.18-.35-2.66.92-4.76,3.2-5.12,2.5-.4,4.39,1,4.8,3.76.83,5.63,1.57,11.27,2.34,16.9.28,2.1,1.14,3.93,2.57,5.47,5.45,5.87,10.9,11.72,16.36,17.57,1.47,1.58,3.3,1.78,4.6.58,1.31-1.21,1.25-3.04-.22-4.63-2.22-2.42-4.48-4.8-6.72-7.2-1.69-1.82-1.81-3.71-.33-5.17,1.48-1.46,3.41-1.33,5.16.39,4.46,4.39,8.91,8.8,13.36,13.19,3.54,3.5,5.23,7.76,5.23,12.72,0,4.77,0,9.54,0,14.31-.04,0-.09,0-.13,0Z"/>
        <circle class="cls-2" cx="71.97" cy="47.39" r="25.39"/>
        <circle class="cls-4" cx="71.97" cy="47.39" r="23.39"/>
        <g>
          <path class="cls-2" d="m65.69,29.76c.29.08.58.14.86.24,1.56.58,2.5,1.69,2.84,3.33.03.14.14.29.26.37.84.6,1.69,1.19,2.54,1.78.05.04.11.07.16.11.28.21.34.48.17.72-.17.22-.45.26-.72.07-.4-.27-.8-.55-1.19-.83-.39-.27-.78-.54-1.2-.83-.2,1.07-.7,1.94-1.53,2.65,1.28.69,2.54,1.36,3.82,2.05.2-.83.59-1.5,1.25-2.01,1.46-1.13,3.52-.89,4.7.54.1.12.29.22.44.24,1.3.15,2.59.28,3.89.41.11.01.23-.03.34-.07.41-.18.82-.38,1.24-.56.58-.25,1.18-.25,1.76,0,.29.12.58.24.85.4.6.35.93.88.98,1.58.03.35-.14.58-.43.61-.28.03-.49-.15-.52-.49-.05-.48-.32-.75-.73-.98-.7-.39-1.34-.34-2.05,0-.53.25-.78.5-.72,1.11.06.63.03,1.27,0,1.91,0,.31.12.42.42.41.88-.01,1.77,0,2.65,0,.24,0,.39-.06.43-.32.05-.29.25-.42.54-.39.26.03.42.24.4.53-.04.62-.42.96-1,1.14,0,.69,0,1.38,0,2.07,0,.1.1.21.17.29.88.89,1.76,1.78,2.66,2.65.32.31.6.64.67,1.1v.13c-.12.61-.52,1.03-1,1.37-.57.39-1.15.77-1.74,1.12-.46.27-1,.13-1.33-.28-.35-.43-.35-.98,0-1.39.25-.28.51-.56.76-.83-.52-.54-1.03-1.08-1.56-1.59-.2-.2-.48-.19-.68,0-.52.5-1.01,1.02-1.55,1.57.22.22.44.43.66.65.43.44.48,1,.13,1.46-.35.46-.88.58-1.41.3-.79-.41-1.58-.85-2.23-1.48-.58-.56-.6-1.32-.03-1.89.96-.97,1.93-1.92,2.88-2.89.11-.11.18-.29.18-.44.02-.55,0-1.1.01-1.65,0-.18-.04-.28-.23-.35-.52-.2-.78-.59-.78-1.15,0-.21,0-.42,0-.67-.94.1-1.84.22-2.74.27-.72.04-1.26.28-1.82.79-1.87,1.7-4.93.62-5.45-1.85-.02-.11-.09-.26-.18-.31-1.32-.72-2.65-1.43-4.05-2.18.04.58.06,1.11.1,1.64.19,2.73.38,5.47.57,8.2.05.68.08,1.36.15,2.03.02.17.09.36.19.49.62.79.95,1.69.95,2.69,0,.98,0,1.96,0,2.95,0,.12,0,.23,0,.34,1.43.27,1.76.52,2.29,1.74.1,0,.21.01.32.02.71.07,1.15.44,1.32,1.13.13.57.26,1.13.38,1.7.19.89-.44,1.68-1.35,1.69-.4,0-.8,0-1.2,0-.35,0-.56-.2-.55-.5,0-.28.21-.46.54-.47.37,0,.73,0,1.1,0,.42,0,.58-.2.49-.6-.12-.54-.25-1.07-.36-1.61-.06-.28-.22-.4-.5-.4-4.51,0-9.02,0-13.53,0-.28,0-.44.12-.5.39-.11.52-.24,1.03-.35,1.54-.11.48.04.66.54.66,3.47,0,6.95,0,10.42,0,.11,0,.22-.01.32,0,.27.04.43.2.43.48,0,.28-.17.43-.44.47-.08.01-.17,0-.26,0-3.5,0-6.99,0-10.49,0-1.12,0-1.72-.76-1.47-1.86.12-.5.23-1.01.34-1.51.17-.72.61-1.11,1.36-1.15.21-.01.31-.07.39-.28.31-.82.92-1.28,1.77-1.42.12-.02.23-.03.38-.05,0-.11.02-.23.02-.34,0-.95,0-1.9,0-2.85,0-1.08.32-2.03,1.01-2.87.07-.08.12-.21.13-.31.2-2.8.39-5.59.59-8.39.09-1.3.18-2.6.28-3.91.02-.2-.03-.31-.2-.43-1.44-1.05-2.12-2.8-1.68-4.48.48-1.81,1.67-2.89,3.51-3.24.05,0,.1-.04.15-.05.35,0,.69,0,1.04,0Zm-1.86,8.38c-.27,3.82-.53,7.61-.8,11.45,1.43-.73,2.82-.73,4.26,0-.27-3.84-.53-7.64-.8-11.46-.92.27-1.78.26-2.67,0Zm4.65,18.49c0-1.16.02-2.29,0-3.42-.03-1.72-1.48-3.15-3.21-3.18-1.8-.04-3.32,1.3-3.4,3.07-.05,1.13-.02,2.26-.02,3.4,0,.04.01.08.03.14h6.6Zm-6.63-22.58c0,1.82,1.47,3.31,3.3,3.33,1.82.01,3.32-1.48,3.33-3.3,0-1.83-1.47-3.33-3.29-3.34-1.84-.01-3.34,1.47-3.34,3.31Zm13.14,8.41c1.32,0,2.41-1.04,2.42-2.35.02-1.34-1.05-2.43-2.37-2.44-1.31-.01-2.41,1.05-2.42,2.36-.01,1.34,1.04,2.43,2.37,2.44Zm9.44,4.53c.44.01.82.18,1.13.49.58.58,1.16,1.16,1.74,1.74.3.3.3.52.02.84-.31.33-.62.66-.92,1-.05.06-.06.16-.09.24.08,0,.18.02.23-.02.64-.44,1.28-.87,1.9-1.33.29-.22.27-.36.02-.61-.95-.95-1.9-1.91-2.86-2.85-.09-.09-.26-.15-.39-.16-.52-.02-1.04-.02-1.55,0-.14,0-.31.08-.41.18-.95.93-1.88,1.87-2.82,2.81-.27.27-.29.42.03.65.59.42,1.22.81,1.84,1.2.07.04.19.02.28.03-.04-.09-.07-.2-.13-.27-.29-.3-.6-.59-.89-.89-.27-.28-.27-.52,0-.79.61-.61,1.22-1.22,1.83-1.83.29-.29.65-.42,1.05-.43Zm-24.79,11.36h11.04c-.28-.54-.72-.72-1.27-.72-2.36,0-4.72,0-7.08,0-.51,0-1.01,0-1.52,0-.51,0-.91.21-1.18.72Zm18.7-19.14v1.72c1.11-.11,2.23-.23,3.36-.34v-1.03c-1.14-.12-2.26-.23-3.36-.34Zm5.39,4.28v1.84h1.42v-1.84h-1.42Z"/>
          <path class="cls-2" d="m65.16,51.51c.84,0,1.51.68,1.5,1.53,0,.82-.69,1.49-1.51,1.49-.83,0-1.5-.67-1.51-1.5,0-.84.67-1.52,1.51-1.52Zm.01.97c-.3,0-.54.21-.55.51-.01.29.21.54.5.56.31.02.56-.22.56-.53,0-.3-.22-.53-.52-.54Z"/>
          <path class="cls-2" d="m65.16,31.7c1.32,0,2.36,1.05,2.36,2.36,0,1.31-1.07,2.37-2.37,2.36-1.28-.01-2.34-1.07-2.35-2.36,0-1.3,1.06-2.37,2.36-2.37Zm1.39,2.36c0-.78-.61-1.39-1.39-1.39-.76,0-1.38.61-1.39,1.37-.01.76.63,1.41,1.39,1.41.77,0,1.39-.62,1.39-1.4Z"/>
          <path class="cls-2" d="m76.52,40.06c0,.85-.67,1.52-1.51,1.51-.83,0-1.49-.67-1.49-1.5,0-.85.66-1.52,1.51-1.51.83,0,1.49.66,1.5,1.5Zm-.97,0c0-.3-.23-.53-.53-.53-.3,0-.53.23-.53.53,0,.3.23.53.53.53.3,0,.53-.23.53-.53Z"/>
        </g>
      </g>
    </g>
  </g>
</svg>